<svg xmlns="http://www.w3.org/2000/svg" viewBox="0 0 64 64" id="ecommerce"><path fill="#457abe" d="M33.479 48h-21a.5.5 0 0 1 0-1h21a.5.5 0 0 1 0 1zm8-11H4.576a.5.5 0 0 1 0-1h36.903a.5.5 0 0 1 0 1z"></path><path fill="#457abe" d="M27.479 48h-9a.5.5 0 0 1-.5-.5v-6a.5.5 0 0 1 .5-.5h9a.5.5 0 0 1 .5.5v6a.5.5 0 0 1-.5.5zm-8.5-1h8v-5h-8v5z"></path><circle cx="22.979" cy="39" r="1" fill="#457abe"></circle><circle cx="13.979" cy="29.5" r=".5" fill="#457abe"></circle><path fill="#457abe" d="M38.5 34h-31a.5.5 0 0 1-.5-.5V23.411a.5.5 0 0 1 1 0V33h30v-9.5a.5.5 0 0 1 1 0v10a.5.5 0 0 1-.5.5zm1-11.5a.5.5 0 0 1-.457-.297L37.175 18H8.825l-1.868 4.204a.5.5 0 0 1-.914-.406l2-4.5A.5.5 0 0 1 8.5 17h29a.5.5 0 0 1 .457.297l2 4.5a.5.5 0 0 1-.457.703z"></path><path fill="#457abe" d="M9.501 22.5a.5.5 0 0 1-.498-.553l.479-4.5a.512.512 0 0 1 .55-.444.5.5 0 0 1 .444.55l-.479 4.5a.5.5 0 0 1-.496.447zm3 0a.5.5 0 0 1-.498-.553l.479-4.5a.51.51 0 0 1 .55-.444.5.5 0 0 1 .444.55l-.479 4.5a.5.5 0 0 1-.496.447zm3 0a.5.5 0 0 1-.498-.553l.479-4.5a.513.513 0 0 1 .55-.444.5.5 0 0 1 .444.55l-.479 4.5a.5.5 0 0 1-.496.447zm3 0a.5.5 0 0 1-.498-.553l.479-4.5a.511.511 0 0 1 .55-.444.5.5 0 0 1 .444.55l-.479 4.5a.5.5 0 0 1-.496.447zm2.999 0a.5.5 0 0 1-.5-.498l-.021-4.5a.5.5 0 0 1 .498-.502h.002a.5.5 0 0 1 .5.498l.021 4.5a.5.5 0 0 1-.498.502H21.5zm14.999 0a.5.5 0 0 1-.496-.442l-.521-4.5a.5.5 0 0 1 .994-.115l.521 4.5a.5.5 0 0 1-.439.554c-.02.003-.039.003-.059.003zm-3 0a.5.5 0 0 1-.496-.442l-.521-4.5a.5.5 0 0 1 .994-.115l.521 4.5a.5.5 0 0 1-.439.554c-.02.003-.039.003-.059.003zm-3 0a.5.5 0 0 1-.496-.442l-.521-4.5a.5.5 0 0 1 .994-.115l.521 4.5a.5.5 0 0 1-.439.554c-.02.003-.039.003-.059.003zm-3 0a.5.5 0 0 1-.496-.442l-.521-4.5a.5.5 0 0 1 .994-.115l.521 4.5a.5.5 0 0 1-.439.554c-.02.003-.039.003-.059.003zm-2.999 0a.5.5 0 0 1-.5-.498l-.021-4.5a.5.5 0 0 1 .498-.502h.002a.5.5 0 0 1 .5.498l.021 4.5a.5.5 0 0 1-.498.502H24.5z"></path><path fill="#457abe" d="M11 24c-1.103 0-2-.897-2-2a.5.5 0 0 1 1 0 1.001 1.001 0 0 0 2 0 .5.5 0 0 1 1 0c0 1.103-.897 2-2 2z"></path><path fill="#457abe" d="M8 24c-1.103 0-2-.897-2-2a.5.5 0 0 1 1 0 1.001 1.001 0 0 0 2 0 .5.5 0 0 1 1 0c0 1.103-.897 2-2 2zm6 0c-1.103 0-2-.897-2-2a.5.5 0 0 1 1 0 1.001 1.001 0 0 0 2 0 .5.5 0 0 1 1 0c0 1.103-.897 2-2 2z"></path><path fill="#457abe" d="M17 24c-1.103 0-2-.897-2-2a.5.5 0 0 1 1 0 1.001 1.001 0 0 0 2 0 .5.5 0 0 1 1 0c0 1.103-.897 2-2 2z"></path><path fill="#457abe" d="M20 24c-1.103 0-2-.897-2-2a.5.5 0 0 1 1 0 1.001 1.001 0 0 0 2 0 .5.5 0 0 1 1 0c0 1.103-.897 2-2 2z"></path><path fill="#457abe" d="M23 24c-1.103 0-2-.897-2-2a.5.5 0 0 1 1 0 1.001 1.001 0 0 0 2 0 .5.5 0 0 1 1 0c0 1.103-.897 2-2 2z"></path><path fill="#457abe" d="M26 24c-1.103 0-2-.897-2-2a.5.5 0 0 1 1 0 1.001 1.001 0 0 0 2 0 .5.5 0 0 1 1 0c0 1.103-.897 2-2 2z"></path><path fill="#457abe" d="M29 24c-1.103 0-2-.897-2-2a.5.5 0 0 1 1 0 1.001 1.001 0 0 0 2 0 .5.5 0 0 1 1 0c0 1.103-.897 2-2 2z"></path><path fill="#457abe" d="M32 24c-1.103 0-2-.897-2-2a.5.5 0 0 1 1 0 1.001 1.001 0 0 0 2 0 .5.5 0 0 1 1 0c0 1.103-.897 2-2 2z"></path><path fill="#457abe" d="M35 24c-1.103 0-2-.897-2-2a.5.5 0 0 1 1 0 1.001 1.001 0 0 0 2 0 .5.5 0 0 1 1 0c0 1.103-.897 2-2 2z"></path><path fill="#457abe" d="M38 24c-1.103 0-2-.897-2-2a.5.5 0 0 1 1 0 1.001 1.001 0 0 0 2 0 .5.5 0 0 1 1 0c0 1.103-.897 2-2 2zM17.5 34h-5a.5.5 0 0 1-.5-.5v-8a.5.5 0 0 1 .5-.5h5a.5.5 0 0 1 .5.5v8a.5.5 0 0 1-.5.5zM13 33h4v-7h-4v7zm20.5-2h-11a.5.5 0 0 1-.5-.5v-5a.5.5 0 0 1 .5-.5h11a.5.5 0 0 1 .5.5v5a.5.5 0 0 1-.5.5zM23 30h10v-4H23v4z"></path><path fill="#457abe" d="M34.5 26h-13a.5.5 0 0 1 0-1h13a.5.5 0 0 1 0 1zm-12 5h-1a.5.5 0 0 1 0-1h1a.5.5 0 0 1 0 1zm12 0h-1a.5.5 0 0 1 0-1h1a.5.5 0 0 1 0 1zm7 15h-1a.5.5 0 0 1 0-1h1a.5.5 0 0 1 0 1zm12 0h-1a.5.5 0 0 1 0-1h1a.5.5 0 0 1 0 1zm-6-9h-1a.5.5 0 0 1 0-1h1a.5.5 0 0 1 0 1z"></path><path fill="#457abe" d="M47.5 48h-9a.5.5 0 0 1-.5-.5v-9a.5.5 0 0 1 .5-.5h9a.5.5 0 0 1 .5.5v9a.5.5 0 0 1-.5.5zM39 47h8v-8h-8v8zm20.5 1h-9a.5.5 0 0 1-.5-.5v-9a.5.5 0 0 1 .5-.5h9a.5.5 0 0 1 .5.5v9a.5.5 0 0 1-.5.5zM51 47h8v-8h-8v8z"></path><path fill="#457abe" d="M44.5 42a.498.498 0 0 1-.277-.084L43 41.101l-1.223.815A.5.5 0 0 1 41 41.5v-3a.5.5 0 0 1 .5-.5h3a.5.5 0 0 1 .5.5v3a.498.498 0 0 1-.5.5zM43 40c.097 0 .193.028.277.084l.723.481V39h-2v1.565l.723-.481A.498.498 0 0 1 43 40zm13.5 2a.498.498 0 0 1-.277-.084L55 41.101l-1.223.815A.5.5 0 0 1 53 41.5v-3a.5.5 0 0 1 .5-.5h3a.5.5 0 0 1 .5.5v3a.498.498 0 0 1-.5.5zM55 40c.097 0 .193.028.277.084l.723.481V39h-2v1.565l.723-.481A.498.498 0 0 1 55 40z"></path><path fill="#457abe" d="M53.5 39h-9a.5.5 0 0 1-.5-.5v-9a.5.5 0 0 1 .5-.5h9a.5.5 0 0 1 .5.5v9a.5.5 0 0 1-.5.5zM45 38h8v-8h-8v8z"></path><path fill="#457abe" d="M50.5 33a.498.498 0 0 1-.277-.084L49 32.101l-1.223.815a.502.502 0 0 1-.514.025A.502.502 0 0 1 47 32.5v-3a.5.5 0 0 1 .5-.5h3a.5.5 0 0 1 .5.5v3a.5.5 0 0 1-.5.5zM49 31c.097 0 .193.028.277.084l.723.482V30h-2v1.566l.723-.482A.498.498 0 0 1 49 31zM38.5 42h-32A2.502 2.502 0 0 1 4 39.5v-23C4 15.122 5.121 14 6.5 14h33c1.379 0 2.5 1.122 2.5 2.5v22a.5.5 0 0 1-.5.5H39v2.5a.5.5 0 0 1-.5.5zm-32-27c-.827 0-1.5.673-1.5 1.5v23c0 .827.673 1.5 1.5 1.5H38v-2.5a.5.5 0 0 1 .5-.5H41V16.5c0-.827-.673-1.5-1.5-1.5h-33z"></path></svg>